<svg width="2441" height="2441" viewBox="0 0 2441 2441" fill="none" xmlns="http://www.w3.org/2000/svg">
<path d="M2441 1220.5C2441 1894.56 1894.56 2441 1220.5 2441C546.436 2441 0 1894.56 0 1220.5C0 546.436 546.436 0 1220.5 0C1894.56 0 2441 546.436 2441 1220.5Z" fill="black"/>
<g clip-path="url(#clip0_3_4)">
<path d="M258 695H1579.33C1579.36 846.987 1579.29 998.987 1579.36 1150.97C1771.21 1151.16 1963.07 1150.73 2154.93 1151.17C2188.47 1210.57 2222.4 1269.73 2255.87 1329.17C2279.2 1370.51 2302.19 1412.05 2326 1453.13V1457.04C2267.23 1551.99 2214.57 1650.6 2156.01 1745.67H598C597.987 1590.12 598.027 1434.56 597.987 1279.01C484.653 1278.96 371.333 1279.01 258 1279V695ZM395.347 804.347C395.32 919.893 395.32 1035.44 395.347 1150.99C430.893 1151.03 466.44 1151.03 501.987 1150.99C502.053 1106.55 501.947 1062.12 502.013 1017.68C536.2 1017.64 570.387 1017.63 604.573 1017.71C607.787 1062.03 607.227 1106.56 607.347 1150.99C643.333 1151.03 679.32 1151.03 715.32 1150.99C715.347 1035.44 715.347 919.893 715.32 804.347C679.333 804.307 643.347 804.32 607.373 804.347C606.307 847.027 609.733 889.627 608.64 932.32C573.093 932.347 537.56 932.36 502.013 932.32C501.933 889.653 502.067 847 501.987 804.347C466.44 804.307 430.893 804.307 395.347 804.347ZM850.453 804.48C815.267 920.307 778.653 1035.71 741.373 1150.87C774.787 1151.09 808.187 1151.09 841.6 1150.87C847.44 1131.35 853.067 1111.76 859.107 1092.31C895.96 1092.39 932.813 1092.2 969.667 1092.44C974.08 1111.97 979.12 1131.37 983.493 1150.93C1021.77 1151.04 1060.07 1151.09 1098.35 1150.89C1062.91 1035.31 1026.19 920.093 991.147 804.373C944.24 804.347 897.347 804.173 850.453 804.48ZM1126.01 804.36C1125.97 919.893 1126 1035.44 1126.01 1150.99C1158 1151.03 1189.99 1151.01 1221.99 1150.99C1221.83 1083.11 1221.73 1015.24 1224.01 947.4C1241.63 973.24 1256.04 1001.09 1271.21 1028.4C1294.19 1069.13 1315.79 1110.63 1339.45 1150.96C1373.19 1151.05 1406.91 1151.01 1440.65 1150.99C1440.68 1035.44 1440.67 919.893 1440.65 804.347C1410.44 804.307 1380.23 804.32 1350.01 804.333C1349.71 843.453 1350.49 882.573 1349.71 921.68C1348.39 943.613 1348.8 965.587 1348.27 987.547C1310.59 929.04 1280.59 866.053 1248.64 804.347C1207.77 804.307 1166.89 804.307 1126.01 804.36ZM1237.27 1271.73C1207.87 1273.79 1177.59 1278.13 1151.28 1292.27C1095.16 1321.09 1057.65 1382.61 1056.97 1445.6C1059.76 1473.03 1060.81 1501.61 1072.55 1527.08C1089.6 1566.12 1122.89 1597.25 1162.05 1613.57C1186.75 1624.35 1214.09 1625.88 1240.65 1626.91C1267.08 1627.96 1293.71 1623.81 1318.32 1614.08C1368.55 1594.53 1410.48 1550.68 1421.45 1497.13C1435.92 1437.8 1423.59 1370.27 1382.13 1324.19C1343.65 1288.08 1289.84 1269.13 1237.27 1271.73ZM1954.49 1273C1933.72 1274.03 1912.75 1275.03 1892.52 1280.27C1817.77 1300.24 1763.76 1377.28 1770.19 1454.39C1767.32 1516.13 1801.4 1578.45 1856.71 1606.88C1878.2 1617.89 1902.32 1622.07 1925.92 1625.88C1982.43 1631.47 2043.47 1618.41 2086.31 1579.29C2107.97 1559.28 2121.37 1532.21 2129.77 1504.32C2146.2 1450.17 2140.39 1387.41 2106.81 1340.83C2089.03 1318.28 2065.97 1299.47 2039.48 1288.13C2012.65 1277 1983.45 1272.35 1954.49 1273ZM747.347 1279.01C747.32 1392.79 747.32 1506.55 747.347 1620.32C782.893 1620.36 818.44 1620.35 853.987 1620.32C854.067 1581.2 853.92 1542.08 854.027 1502.96C860.973 1503 867.947 1503.09 874.92 1503.23C896.6 1542.15 917.533 1581.49 939.467 1620.29C976.827 1620.39 1014.19 1620.37 1051.55 1620.27C1025.45 1575.11 999.547 1529.8 975.56 1483.47C994.693 1468.44 1012.64 1451.01 1024.68 1429.68C1035.53 1408.24 1029.63 1383.79 1027.89 1361.09C1026.01 1329.29 1000.04 1304.84 972.68 1292.35C946.48 1278.77 915.987 1279.89 887.347 1279.04C840.68 1278.91 794.013 1279.01 747.347 1279.01ZM1452.68 1280.47C1452.64 1393.76 1452.67 1507.04 1452.68 1620.32C1489.56 1620.36 1526.44 1620.35 1563.32 1620.32C1563.41 1581.08 1563.23 1541.85 1563.37 1502.61C1569.77 1503.39 1576.6 1502.8 1582.84 1504.88C1585.61 1507.67 1586.85 1511.55 1588.83 1514.92C1605.79 1550.69 1625.56 1585.03 1643.45 1620.32C1681.17 1619.99 1718.95 1621.41 1756.63 1618.97C1730.43 1573.93 1705.65 1528.11 1680.67 1482.4C1712.29 1464.95 1734.95 1431.91 1739 1395.92C1739.75 1376.44 1734.85 1357.2 1728.87 1338.83C1718.97 1316.53 1698.49 1300.59 1676.55 1291.09C1654.32 1281.07 1629.43 1281.03 1605.57 1279.37C1554.6 1278.08 1503.64 1279.41 1452.68 1280.47Z" fill="#FCFCFC"/>
<path d="M910.907 902.533C911.88 899.773 913.12 897.12 914.4 894.493C926.147 935.44 936.987 976.653 948.8 1017.57C925.627 1017.76 902.453 1017.71 879.293 1017.61C889.547 979.173 898.6 940.387 910.907 902.533ZM1237.27 1355.69C1253.63 1354.01 1270.12 1358.93 1283.63 1368.04C1296.25 1376.15 1302.76 1390.32 1307.76 1403.91C1320.52 1441.41 1319.43 1486.89 1294.03 1519.04C1266.08 1555.71 1199.25 1547.75 1181.27 1505.16C1172.56 1483.11 1169.09 1459.04 1170.32 1435.4C1172.75 1415.04 1178.17 1393.93 1191.44 1377.8C1202.97 1364.68 1220.07 1357.37 1237.27 1355.69ZM1563.29 1355.31C1582.41 1357.76 1602.41 1357.71 1620.24 1366.11C1629.19 1370.67 1635.35 1380.44 1634.81 1390.55C1633.84 1400.67 1632.52 1411.19 1626.88 1419.95C1609.89 1436.03 1584.69 1432.47 1563.36 1436.15C1563.28 1409.2 1563.33 1382.25 1563.29 1355.31ZM854.053 1356.36C874.027 1359.77 895.213 1357.19 914.107 1365.52C926.507 1371.56 928.96 1386.77 929.92 1399.03C929.867 1412.47 918.813 1422.17 907.347 1426.96C890.36 1433.63 871.933 1434.12 854.053 1436.41C853.947 1409.72 853.933 1383.04 854.053 1356.36ZM1941.24 1356.99C1959.59 1354.69 1980.09 1356.59 1994.81 1368.92C2014.93 1384.05 2023.8 1409.47 2026.07 1433.71C2029.15 1459.07 2025.08 1485.28 2013.76 1508.23C2008.09 1520.09 1997.59 1529.12 1986.01 1535C1957.57 1547.36 1920.47 1543.28 1899.68 1518.68C1890.04 1506.37 1887.39 1490.59 1884.07 1475.76C1877.65 1443.12 1881.32 1406.24 1902.41 1379.4C1912.12 1367.61 1925.95 1359.01 1941.24 1356.99Z" fill="#FCFCFC"/>
</g>
<defs>
<clipPath id="clip0_3_4">
<rect width="2068" height="1050.67" fill="white" transform="translate(258 695)"/>
</clipPath>
</defs>
</svg>
